<mxfile host="65bd71144e">
    <diagram name="Page-1" id="FUj5JuBEpWsL8a2AdBEq">
        <mxGraphModel dx="257" dy="2037" grid="1" gridSize="10" guides="1" tooltips="1" connect="1" arrows="1" fold="1" page="1" pageScale="1" pageWidth="850" pageHeight="1100" math="0" shadow="0">
            <root>
                <mxCell id="0"/>
                <mxCell id="1" parent="0"/>
                <mxCell id="34" style="edgeStyle=orthogonalEdgeStyle;html=1;entryX=1;entryY=0.5;entryDx=0;entryDy=0;exitX=1;exitY=0.5;exitDx=0;exitDy=0;rounded=0;" edge="1" parent="1" source="zCPMt5TRUJEyaNVyQsG4-7" target="6EVmLK6l6n9z2KSdd183-173">
                    <mxGeometry relative="1" as="geometry">
                        <Array as="points">
                            <mxPoint x="1455" y="820"/>
                            <mxPoint x="1455" y="326"/>
                        </Array>
                    </mxGeometry>
                </mxCell>
                <mxCell id="35" value="ใช่" style="edgeLabel;html=1;align=center;verticalAlign=middle;resizable=0;points=[];" vertex="1" connectable="0" parent="34">
                    <mxGeometry x="-0.8521" relative="1" as="geometry">
                        <mxPoint as="offset"/>
                    </mxGeometry>
                </mxCell>
                <mxCell id="6EVmLK6l6n9z2KSdd183-135" value="เริ่มต้น" style="whiteSpace=wrap;strokeWidth=1;fillColor=default;" parent="1" vertex="1">
                    <mxGeometry x="1224.5" y="30" width="101" height="49" as="geometry"/>
                </mxCell>
                <mxCell id="6EVmLK6l6n9z2KSdd183-148" value="สิ้นสุด" style="whiteSpace=wrap;strokeWidth=1;fillColor=default;" parent="1" vertex="1">
                    <mxGeometry x="1225.5" y="1020" width="99" height="50" as="geometry"/>
                </mxCell>
                <mxCell id="6EVmLK6l6n9z2KSdd183-149" value="" style="curved=1;startArrow=none;endArrow=block;exitX=0.5;exitY=1;entryX=0.5;entryY=0;rounded=0;entryDx=0;entryDy=0;exitDx=0;exitDy=0;" parent="1" source="6EVmLK6l6n9z2KSdd183-135" target="6EVmLK6l6n9z2KSdd183-172" edge="1">
                    <mxGeometry relative="1" as="geometry">
                        <Array as="points"/>
                        <mxPoint x="1275" y="-11" as="targetPoint"/>
                    </mxGeometry>
                </mxCell>
                <mxCell id="6EVmLK6l6n9z2KSdd183-150" value="" style="curved=1;startArrow=none;endArrow=block;exitX=0.5;exitY=1;entryX=0.5;entryY=0;rounded=0;entryDx=0;entryDy=0;exitDx=0;exitDy=0;" parent="1" source="6EVmLK6l6n9z2KSdd183-172" target="6EVmLK6l6n9z2KSdd183-173" edge="1">
                    <mxGeometry relative="1" as="geometry">
                        <Array as="points"/>
                        <mxPoint x="1275" y="-41.999999999999886" as="sourcePoint"/>
                    </mxGeometry>
                </mxCell>
                <mxCell id="31" value="&lt;span style=&quot;color: rgb(0, 0, 0);&quot;&gt;ใช่&lt;/span&gt;" style="edgeLabel;html=1;align=center;verticalAlign=middle;resizable=0;points=[];" vertex="1" connectable="0" parent="6EVmLK6l6n9z2KSdd183-150">
                    <mxGeometry x="-0.224" relative="1" as="geometry">
                        <mxPoint as="offset"/>
                    </mxGeometry>
                </mxCell>
                <mxCell id="6EVmLK6l6n9z2KSdd183-172" value="NFC ใช้งานได้" style="rhombus;strokeWidth=1;whiteSpace=wrap;fillColor=default;" parent="1" vertex="1">
                    <mxGeometry x="1224.5" y="140" width="101" height="101" as="geometry"/>
                </mxCell>
                <mxCell id="6EVmLK6l6n9z2KSdd183-173" value="เปิด Session NFC" style="whiteSpace=wrap;strokeWidth=1;fillColor=default;" parent="1" vertex="1">
                    <mxGeometry x="1219.25" y="302" width="111.5" height="48" as="geometry"/>
                </mxCell>
                <mxCell id="6EVmLK6l6n9z2KSdd183-174" value="แสดงข้อผิดพลาด" style="whiteSpace=wrap;strokeWidth=1;fillColor=default;" parent="1" vertex="1">
                    <mxGeometry x="1054" y="166.5" width="111.5" height="48" as="geometry"/>
                </mxCell>
                <mxCell id="6EVmLK6l6n9z2KSdd183-176" value="" style="endArrow=classic;html=1;rounded=0;entryX=1;entryY=0.5;entryDx=0;entryDy=0;exitX=0;exitY=0.5;exitDx=0;exitDy=0;" parent="1" source="6EVmLK6l6n9z2KSdd183-172" target="6EVmLK6l6n9z2KSdd183-174" edge="1">
                    <mxGeometry width="50" height="50" relative="1" as="geometry">
                        <mxPoint x="1205" y="269" as="sourcePoint"/>
                        <mxPoint x="1255" y="219" as="targetPoint"/>
                    </mxGeometry>
                </mxCell>
                <mxCell id="29" value="&lt;span style=&quot;color: rgb(0, 0, 0);&quot;&gt;ไม่&lt;/span&gt;" style="edgeLabel;html=1;align=center;verticalAlign=middle;resizable=0;points=[];" vertex="1" connectable="0" parent="6EVmLK6l6n9z2KSdd183-176">
                    <mxGeometry x="-0.1749" y="-1" relative="1" as="geometry">
                        <mxPoint as="offset"/>
                    </mxGeometry>
                </mxCell>
                <mxCell id="6EVmLK6l6n9z2KSdd183-179" value="Session &#xa;มีข้อมูลการ์ด" style="rhombus;strokeWidth=1;whiteSpace=wrap;fillColor=default;" parent="1" vertex="1">
                    <mxGeometry x="1224.5" y="410" width="101" height="101" as="geometry"/>
                </mxCell>
                <mxCell id="6EVmLK6l6n9z2KSdd183-180" value="" style="endArrow=classic;html=1;rounded=0;exitX=0.5;exitY=1;exitDx=0;exitDy=0;entryX=0.5;entryY=0;entryDx=0;entryDy=0;" parent="1" source="6EVmLK6l6n9z2KSdd183-173" target="6EVmLK6l6n9z2KSdd183-179" edge="1">
                    <mxGeometry width="50" height="50" relative="1" as="geometry">
                        <mxPoint x="1265" y="429" as="sourcePoint"/>
                        <mxPoint x="1315" y="379" as="targetPoint"/>
                    </mxGeometry>
                </mxCell>
                <mxCell id="6EVmLK6l6n9z2KSdd183-182" value="เปิดโหมดเขียน" style="whiteSpace=wrap;strokeWidth=1;fillColor=default;" parent="1" vertex="1">
                    <mxGeometry x="1219.25" y="570" width="111.5" height="48" as="geometry"/>
                </mxCell>
                <mxCell id="6EVmLK6l6n9z2KSdd183-183" value="" style="endArrow=classic;html=1;rounded=0;exitX=0.5;exitY=1;exitDx=0;exitDy=0;entryX=0.5;entryY=0;entryDx=0;entryDy=0;" parent="1" source="6EVmLK6l6n9z2KSdd183-179" target="6EVmLK6l6n9z2KSdd183-182" edge="1">
                    <mxGeometry width="50" height="50" relative="1" as="geometry">
                        <mxPoint x="1245" y="449" as="sourcePoint"/>
                        <mxPoint x="1295" y="399" as="targetPoint"/>
                    </mxGeometry>
                </mxCell>
                <mxCell id="33" value="&lt;span style=&quot;color: rgb(0, 0, 0);&quot;&gt;ใช่&lt;/span&gt;" style="edgeLabel;html=1;align=center;verticalAlign=middle;resizable=0;points=[];" vertex="1" connectable="0" parent="6EVmLK6l6n9z2KSdd183-183">
                    <mxGeometry x="-0.2128" relative="1" as="geometry">
                        <mxPoint as="offset"/>
                    </mxGeometry>
                </mxCell>
                <mxCell id="6EVmLK6l6n9z2KSdd183-185" value="เปิดโหมดอ่าน" style="whiteSpace=wrap;strokeWidth=1;fillColor=default;" parent="1" vertex="1">
                    <mxGeometry x="1385" y="436.5" width="111.5" height="48" as="geometry"/>
                </mxCell>
                <mxCell id="6EVmLK6l6n9z2KSdd183-186" value="" style="endArrow=classic;html=1;rounded=0;exitX=1;exitY=0.5;exitDx=0;exitDy=0;entryX=0;entryY=0.5;entryDx=0;entryDy=0;" parent="1" source="6EVmLK6l6n9z2KSdd183-179" target="6EVmLK6l6n9z2KSdd183-185" edge="1">
                    <mxGeometry width="50" height="50" relative="1" as="geometry">
                        <mxPoint x="1205" y="529" as="sourcePoint"/>
                        <mxPoint x="1255" y="479" as="targetPoint"/>
                    </mxGeometry>
                </mxCell>
                <mxCell id="32" value="&lt;span style=&quot;color: rgb(0, 0, 0);&quot;&gt;ไม่&lt;/span&gt;" style="edgeLabel;html=1;align=center;verticalAlign=middle;resizable=0;points=[];" vertex="1" connectable="0" parent="6EVmLK6l6n9z2KSdd183-186">
                    <mxGeometry x="-0.1615" relative="1" as="geometry">
                        <mxPoint as="offset"/>
                    </mxGeometry>
                </mxCell>
                <mxCell id="6EVmLK6l6n9z2KSdd183-189" value="" style="ellipse;whiteSpace=wrap;html=1;aspect=fixed;fillColor=default;" parent="1" vertex="1">
                    <mxGeometry x="1265" y="680" width="20" height="20" as="geometry"/>
                </mxCell>
                <mxCell id="6EVmLK6l6n9z2KSdd183-190" value="" style="endArrow=classic;html=1;rounded=0;exitX=0.5;exitY=1;exitDx=0;exitDy=0;entryX=0.5;entryY=0;entryDx=0;entryDy=0;" parent="1" source="6EVmLK6l6n9z2KSdd183-182" target="6EVmLK6l6n9z2KSdd183-189" edge="1">
                    <mxGeometry width="50" height="50" relative="1" as="geometry">
                        <mxPoint x="1265" y="753" as="sourcePoint"/>
                        <mxPoint x="1315" y="703" as="targetPoint"/>
                    </mxGeometry>
                </mxCell>
                <mxCell id="6EVmLK6l6n9z2KSdd183-191" value="" style="endArrow=classic;html=1;rounded=0;entryX=0.5;entryY=0;entryDx=0;entryDy=0;exitX=0.5;exitY=1;exitDx=0;exitDy=0;" parent="1" source="6EVmLK6l6n9z2KSdd183-189" target="zCPMt5TRUJEyaNVyQsG4-7" edge="1">
                    <mxGeometry width="50" height="50" relative="1" as="geometry">
                        <mxPoint x="1215" y="823" as="sourcePoint"/>
                        <mxPoint x="1265" y="773" as="targetPoint"/>
                    </mxGeometry>
                </mxCell>
                <mxCell id="6EVmLK6l6n9z2KSdd183-194" value="" style="endArrow=classic;html=1;rounded=0;entryX=1;entryY=0.5;entryDx=0;entryDy=0;exitX=0.5;exitY=1;exitDx=0;exitDy=0;edgeStyle=orthogonalEdgeStyle;" parent="1" source="6EVmLK6l6n9z2KSdd183-185" target="6EVmLK6l6n9z2KSdd183-189" edge="1">
                    <mxGeometry width="50" height="50" relative="1" as="geometry">
                        <mxPoint x="1455" y="549" as="sourcePoint"/>
                        <mxPoint x="1275" y="379" as="targetPoint"/>
                    </mxGeometry>
                </mxCell>
                <mxCell id="zCPMt5TRUJEyaNVyQsG4-7" value="เกิดข้อผิดพลาด&#xa;ระหว่าง อ่าน-เขียน" style="rhombus;strokeWidth=1;whiteSpace=wrap;fillColor=default;" parent="1" vertex="1">
                    <mxGeometry x="1215" y="760" width="120" height="120" as="geometry"/>
                </mxCell>
                <mxCell id="zCPMt5TRUJEyaNVyQsG4-8" value="" style="endArrow=classic;html=1;rounded=0;exitX=0.5;exitY=1;exitDx=0;exitDy=0;entryX=0.5;entryY=0;entryDx=0;entryDy=0;" parent="1" source="zCPMt5TRUJEyaNVyQsG4-7" target="zCPMt5TRUJEyaNVyQsG4-15" edge="1">
                    <mxGeometry width="50" height="50" relative="1" as="geometry">
                        <mxPoint x="1366" y="778" as="sourcePoint"/>
                        <mxPoint x="1416" y="728" as="targetPoint"/>
                    </mxGeometry>
                </mxCell>
                <mxCell id="zCPMt5TRUJEyaNVyQsG4-11" value="ไม่" style="edgeLabel;html=1;align=center;verticalAlign=middle;resizable=0;points=[];" parent="zCPMt5TRUJEyaNVyQsG4-8" vertex="1" connectable="0">
                    <mxGeometry x="-0.2235" relative="1" as="geometry">
                        <mxPoint as="offset"/>
                    </mxGeometry>
                </mxCell>
                <mxCell id="zCPMt5TRUJEyaNVyQsG4-15" value="" style="ellipse;whiteSpace=wrap;html=1;aspect=fixed;fillColor=default;" parent="1" vertex="1">
                    <mxGeometry x="1265" y="940" width="20" height="20" as="geometry"/>
                </mxCell>
                <mxCell id="zCPMt5TRUJEyaNVyQsG4-16" value="" style="endArrow=classic;html=1;rounded=0;exitX=0.5;exitY=1;exitDx=0;exitDy=0;entryX=0.5;entryY=0;entryDx=0;entryDy=0;" parent="1" source="zCPMt5TRUJEyaNVyQsG4-15" target="6EVmLK6l6n9z2KSdd183-148" edge="1">
                    <mxGeometry width="50" height="50" relative="1" as="geometry">
                        <mxPoint x="1366" y="1078" as="sourcePoint"/>
                        <mxPoint x="1416" y="1028" as="targetPoint"/>
                    </mxGeometry>
                </mxCell>
                <mxCell id="zCPMt5TRUJEyaNVyQsG4-17" value="" style="endArrow=classic;html=1;rounded=0;exitX=0.5;exitY=1;exitDx=0;exitDy=0;entryX=0;entryY=0.5;entryDx=0;entryDy=0;edgeStyle=orthogonalEdgeStyle;" parent="1" source="6EVmLK6l6n9z2KSdd183-174" target="zCPMt5TRUJEyaNVyQsG4-15" edge="1">
                    <mxGeometry width="50" height="50" relative="1" as="geometry">
                        <mxPoint x="1366" y="234" as="sourcePoint"/>
                        <mxPoint x="1416" y="184" as="targetPoint"/>
                    </mxGeometry>
                </mxCell>
            </root>
        </mxGraphModel>
    </diagram>
</mxfile>